<svg id="Capa_1" enable-background="new 0 0 512 512" height="512" viewBox="0 0 512 512" width="512" xmlns="http://www.w3.org/2000/svg"><g><g><path d="m375.743 504.5h-310.325c-16.569 0-30-13.431-30-30v-422c0-16.569 13.431-30 30-30h310.325c16.569 0 30 13.431 30 30v422c0 16.569-13.432 30-30 30z" fill="#c17d4f"/><path d="m375.743 22.5h-30c16.568 0 30 13.432 30 30v422c0 16.568-13.432 30-30 30h30c16.568 0 30-13.432 30-30v-422c0-16.568-13.432-30-30-30z" fill="#b16e3d"/><path d="m75.418 460.5v-394c0-2.209 1.791-4 4-4h282.324c2.209 0 4 1.791 4 4v394c0 2.209-1.791 4-4 4h-282.324c-2.209 0-4-1.791-4-4z" fill="#fff"/><path d="m361.742 62.5h-30c2.209 0 4 1.791 4 4v394c0 2.209-1.791 4-4 4h30c2.209 0 4-1.791 4-4v-394c0-2.209-1.791-4-4-4z" fill="#edebed"/><path d="m273.08 166h-34.5c-1.657 0-3-1.343-3-3v-34.5c0-3.314-2.686-6-6-6h-18c-3.314 0-6 2.686-6 6v34.5c0 1.657-1.343 3-3 3h-34.5c-3.314 0-6 2.686-6 6v18c0 3.314 2.686 6 6 6h34.5c1.657 0 3 1.343 3 3v34.5c0 3.314 2.686 6 6 6h18c3.314 0 6-2.686 6-6v-34.5c0-1.657 1.343-3 3-3h34.5c3.314 0 6-2.686 6-6v-18c0-3.314-2.686-6-6-6z" fill="#dd636e"/><path d="m268.378 77.5h-80.596c-22.091 0-40-17.909-40-40v-20c0-5.523 4.477-10 10-10h140.596c5.523 0 10 4.477 10 10v20c0 22.091-17.908 40-40 40z" fill="#655e67"/><path d="m298.378 7.5h-30c5.523 0 10 4.477 10 10v20c0 22.091-17.909 40-40 40h30c22.091 0 40-17.909 40-40v-20c0-5.523-4.477-10-10-10z" fill="#544f56"/><circle cx="390.044" cy="417.964" fill="#bed8fb" r="86.536"/><path d="m390.044 331.428c-5.119 0-10.125.47-15 1.322 40.638 7.106 71.536 42.54 71.536 85.213 0 42.674-30.897 78.107-71.536 85.214 4.875.853 9.881 1.322 15 1.322 47.792 0 86.536-38.744 86.536-86.536s-38.743-86.535-86.536-86.535z" fill="#9dc6fb"/><path d="m390.044 504.5c21.684 0 41.49-7.994 56.675-21.172-10.263-20.941-31.781-35.364-56.675-35.364s-46.412 14.423-56.675 35.364c15.185 13.178 34.991 21.172 56.675 21.172z" fill="#dd636e"/><path d="m412.755 501.468c12.483-3.395 24.25-9.702 33.959-18.136.001-.001.003-.003.005-.004-3.449-7.038-8.174-13.334-13.866-18.599-12.82 19.904-33.581 34.212-57.808 38.449 3.648.638 7.37 1.061 11.157 1.234 8.935.407 17.93-.599 26.553-2.944z" fill="#da4a54"/><circle cx="390.044" cy="391.073" fill="#f1ccbd" r="26.891"/></g><path d="m413.24 326.826v-274.326c0-20.678-16.822-37.5-37.5-37.5h-60.062c-1.22-8.466-8.502-15-17.3-15h-85.506c-4.143 0-7.5 3.358-7.5 7.5s3.357 7.5 7.5 7.5h85.506c1.379 0 2.5 1.122 2.5 2.5v20c0 17.92-14.579 32.5-32.5 32.5h-80.596c-17.921 0-32.5-14.58-32.5-32.5v-20c0-1.378 1.121-2.5 2.5-2.5h20.09c4.143 0 7.5-3.358 7.5-7.5s-3.357-7.5-7.5-7.5h-20.09c-8.798 0-16.081 6.534-17.3 15h-75.062c-20.678 0-37.5 16.822-37.5 37.5v422c0 20.678 16.822 37.5 37.5 37.5h310.32c1.842 0 3.683-.145 5.493-.416 1.601-.24 3.23.259 4.856.327 24.029 1.002 47.837-7.482 65.737-23.115 19.752-17.251 32.253-42.608 32.253-70.832.001-43.849-30.168-80.781-70.839-91.138zm-260.052-256.826c8.67 9.223 20.967 15 34.594 15h80.596c13.627 0 25.924-5.777 34.594-15h55.269v229.89c0 4.142 3.357 7.5 7.5 7.5s7.5-3.358 7.5-7.5v-233.39c0-6.341-5.159-11.5-11.5-11.5h-49.217c2.156-5.42 3.355-11.321 3.355-17.5v-7.5h59.862c12.406 0 22.5 10.093 22.5 22.5v271.79c-2.702-.234-5.435-.361-8.196-.361-51.852 0-94.036 42.184-94.036 94.036 0 13.919 3.043 27.139 8.494 39.036h-221.583v-387.001zm-87.768 427c-12.406 0-22.5-10.093-22.5-22.5v-422c0-12.407 10.094-22.5 22.5-22.5h74.862v7.5c0 6.179 1.199 12.08 3.355 17.5h-64.217c-6.341 0-11.5 5.159-11.5 11.5v394c0 6.341 5.159 11.5 11.5 11.5h233.708c6.969 9.89 15.749 18.561 25.97 24.968.016.011-273.678.032-273.678.032zm324.624 0c-16.931 0-33.486-5.484-47.047-15.571 10.128-16.153 27.665-25.965 47.047-25.965 19.383 0 36.919 9.812 47.047 25.965-13.534 10.089-30.194 15.571-47.047 15.571zm58.315-25.75c-13.039-19.208-34.586-30.787-58.315-30.787s-45.276 11.579-58.315 30.787c-12.861-14.063-20.721-32.773-20.721-53.287 0-43.581 35.455-79.036 79.036-79.036s79.036 35.455 79.036 79.036c0 20.515-7.86 39.225-20.721 53.287zm-280.279-267.75h30v30c0 7.444 6.056 13.5 13.5 13.5h18c7.444 0 13.5-6.056 13.5-13.5v-30h30c7.444 0 13.5-6.056 13.5-13.5v-18c0-7.444-6.056-13.5-13.5-13.5h-30v-30c0-7.444-6.056-13.5-13.5-13.5h-18c-7.444 0-13.5 6.056-13.5 13.5v30h-30c-7.444 0-13.5 6.056-13.5 13.5v18c0 7.444 6.056 13.5 13.5 13.5zm1.5-30h33c5.79 0 10.5-4.71 10.5-10.5v-33h15v33c0 5.79 4.71 10.5 10.5 10.5h33v15h-33c-5.79 0-10.5 4.71-10.5 10.5v33h-15v-33c0-5.79-4.71-10.5-10.5-10.5h-33zm-46.484 163.5h180.984c4.143 0 7.5-3.358 7.5-7.5s-3.357-7.5-7.5-7.5h-180.984c-4.143 0-7.5 3.358-7.5 7.5s3.357 7.5 7.5 7.5zm0-45h197.646c4.143 0 7.5-3.358 7.5-7.5s-3.357-7.5-7.5-7.5h-197.646c-4.143 0-7.5 3.358-7.5 7.5s3.357 7.5 7.5 7.5zm266.948 64.683c-18.963 0-34.391 15.428-34.391 34.391s15.428 34.391 34.391 34.391 34.391-15.428 34.391-34.391-15.428-34.391-34.391-34.391zm0 53.781c-10.692 0-19.391-8.699-19.391-19.391s8.698-19.391 19.391-19.391 19.391 8.699 19.391 19.391-8.699 19.391-19.391 19.391zm-266.948 16.536h137.646c4.143 0 7.5-3.358 7.5-7.5s-3.357-7.5-7.5-7.5h-137.646c-4.143 0-7.5 3.358-7.5 7.5s3.357 7.5 7.5 7.5zm0-45h152.646c4.143 0 7.5-3.358 7.5-7.5s-3.357-7.5-7.5-7.5h-152.646c-4.143 0-7.5 3.358-7.5 7.5s3.357 7.5 7.5 7.5z"/></g></svg>