<?xml version="1.0"?>
<svg xmlns="http://www.w3.org/2000/svg" xmlns:xlink="http://www.w3.org/1999/xlink" xmlns:svgjs="http://svgjs.com/svgjs" version="1.1" width="512" height="512" x="0" y="0" viewBox="0 0 512 512" style="enable-background:new 0 0 512 512" xml:space="preserve" class=""><g><g xmlns="http://www.w3.org/2000/svg"><g><g><path d="m441.818 502v-94.892c0-25.763-16.447-48.651-40.865-56.867l-21.954-7.387-9.392 11.84-10.034-18.376-45.451-15.293c-8.139-2.739-13.622-10.368-13.622-18.956v-32.569h-89v32.568c0 8.588-5.482 16.217-13.622 18.956l-86.831 29.217c-24.418 8.216-40.865 31.104-40.865 56.867v94.892c0 5.523 4.477 10 10 10h351.637c5.522 0 9.999-4.477 9.999-10z" fill="#b3e59f" data-original="#b3e59f" style=""/><g><path d="m400.953 350.241-21.954-7.387-9.392 11.84-10.034-18.376-45.451-15.293c-8.139-2.739-13.622-10.368-13.622-18.956v-32.569h-89v15h59v32.568c0 8.587 5.482 16.217 13.622 18.956l86.831 29.217c24.418 8.216 40.865 31.104 40.865 56.867v89.892h20c5.523 0 10-4.477 10-10v-94.892c0-25.763-16.447-48.651-40.865-56.867z" fill="#95d6a4" data-original="#95d6a4" style=""/></g><path d="m197.205 321.25 56.966 56.966c1.562 1.562 4.095 1.562 5.657 0l56.463-56.462-2.169-.73c-8.139-2.739-13.622-10.368-13.622-18.956v-32.568h-89v32.568c0 8.587-5.482 16.217-13.622 18.956z" fill="#f1ccbd" data-original="#f1ccbd" style="" class=""/><path d="m314.122 321.024c-8.139-2.739-13.622-10.368-13.622-18.955v-32.569h-30v32.568c-.059 6.028 2.9 11.873 7.573 15.691 3.619 2.957 3.751 8.462.446 11.767l-36.519 36.519 12.172 12.171c1.562 1.562 4.095 1.562 5.657 0l56.463-56.462z" fill="#eaad9c" data-original="#eaad9c" style=""/><g><path d="m371.104 142.5h-230.208v-85c0-27.614 22.386-50 50-50h130.207c27.614 0 50 22.386 50 50v85z" fill="#0e0906" data-original="#c17d4f" style="" class=""/><path d="m321.104 7.5h-30c27.614 0 50 22.386 50 50v85h30v-85c0-27.614-22.386-50-50-50z" fill="#121110" data-original="#b16e3d" style="" class=""/><path d="m378.989 172.034h-7.885v-44.542h7.885c12.3 0 22.271 9.971 22.271 22.271 0 12.3-9.971 22.271-22.271 22.271z" fill="#eaad9c" data-original="#eaad9c" style=""/><path d="m133.011 172.034h7.885v-44.542h-7.885c-12.3 0-22.271 9.971-22.271 22.271 0 12.3 9.971 22.271 22.271 22.271z" fill="#eaad9c" data-original="#eaad9c" style=""/><g><path d="m255.593 303.991c-63.615-.22-114.697-52.736-114.697-116.352v-60.139c22.95.068 57.431-2.836 95.558-18.192 17.785-7.163 32.723-15.57 44.837-23.607 2.62-1.738 6.124-1.125 8.051 1.36 6.093 7.856 16.326 18.732 31.844 27.344 20.888 11.592 40.434 13.022 49.917 13.096v61.388c.001 63.704-51.753 115.322-115.51 115.102z" fill="#f1ccbd" data-original="#f1ccbd" style="" class=""/></g><g><path d="m341.104 122.87v51.018c0 63.705-51.753 115.323-115.51 115.103-12.183-.042-23.904-2.008-34.897-5.597 18.424 12.894 40.756 20.514 64.897 20.597 63.757.221 115.51-51.397 115.51-115.103 0-20.462 0-40.925 0-61.388-6.355-.049-17.232-.713-30-4.63z" fill="#eaad9c" data-original="#eaad9c" style=""/></g></g><path d="m131.05 408.603c1.204 2.875 3.989 4.606 6.921 4.606.965 0 1.947-.188 2.893-.583 3.821-1.6 5.622-5.994 4.022-9.814-3.53-8.433-5.517-17.269-5.905-26.264-.709-16.405 4.076-29.82 8.526-38.575l-18.852 6.343" fill="#dfdce0" data-original="#dfdce0" style=""/><circle cx="369.607" cy="438" fill="#f1eff1" r="32.293" data-original="#f1eff1" style=""/></g></g><path d="m256 497c-4.142 0-7.5 3.358-7.5 7.5s3.358 7.5 7.5 7.5 7.5-3.358 7.5-7.5-3.358-7.5-7.5-7.5zm0-90c-4.142 0-7.5 3.358-7.5 7.5s3.358 7.5 7.5 7.5 7.5-3.358 7.5-7.5-3.358-7.5-7.5-7.5zm0 45c-4.142 0-7.5 3.358-7.5 7.5s3.358 7.5 7.5 7.5 7.5-3.358 7.5-7.5-3.358-7.5-7.5-7.5zm.007-198.299c.417 0 .84-.008 1.267-.023 8.756-.313 15.329-3.742 19.3-6.563 3.376-2.399 4.169-7.081 1.771-10.458-2.399-3.375-7.081-4.168-10.458-1.771-1.883 1.338-5.836 3.611-11.15 3.802-6.014.22-10.493-2.292-12.629-3.807-3.379-2.395-8.061-1.597-10.456 1.783s-1.597 8.061 1.783 10.456c3.531 2.503 10.789 6.581 20.572 6.581zm147.335 89.431-86.837-29.223c-6.229-2.102-8.855-7.795-8.505-13.923 12.664-5.938 24.34-14.086 34.543-24.254 23.254-23.174 36.061-54.016 36.061-86.844l.386-9.354c16.416 0 29.771-13.355 29.771-29.771 0-16.549-13.596-29.993-30.156-29.771v-62.492c0-31.706-25.794-57.5-57.5-57.5h-130.209c-31.706 0-57.5 25.794-57.5 57.5v62.493c-16.545-.151-30.156 13.171-30.156 29.771 0 16.545 13.6 29.995 30.156 29.771v8.104c0 15.996 3.006 31.594 8.934 46.359 1.543 3.844 5.91 5.708 9.754 4.166 3.844-1.543 5.709-5.91 4.166-9.754-5.211-12.98-7.854-26.697-7.854-40.77v-52.72c31.5-.779 62.034-7.043 90.86-18.654 15.665-6.309 30.797-14.224 45.001-23.536 9.208 11.586 20.401 21.082 33.29 28.234 16.978 9.422 33.475 12.784 46.056 13.728v54.197c0 28.812-11.24 55.881-31.649 76.22-20.513 20.442-47.239 31.484-76.335 31.383-32.132-.111-62.304-14.649-82.778-39.884-2.61-3.217-7.334-3.709-10.549-1.099-3.217 2.61-3.709 7.333-1.099 10.549 11.81 14.557 26.463 25.981 42.807 33.737.517 6.017-2.463 12.157-8.512 14.118l-86.831 29.221c-27.5 9.256-45.977 34.967-45.977 63.978v97.39c0 4.142 3.358 7.5 7.5 7.5s7.5-3.358 7.5-7.5v-97.39c0-22.564 14.372-42.562 35.762-49.761l13.004-4.376c-1.916 7.924-2.755 16.1-2.452 24.18.288 7.681 1.584 15.227 3.825 22.545-14.57 4.374-25.219 17.903-25.219 33.878v30.522c0 7.551 6.143 13.693 13.693 13.693h8.405c4.142 0 7.5-3.358 7.5-7.5s-3.358-7.5-7.5-7.5h-7.098v-29.217c0-11.227 9.13-20.361 20.355-20.368.006 0 .011.001.017.001s.012-.001.018-.001c11.222.012 20.348 9.144 20.348 20.368v29.217h-7.098c-4.142 0-7.5 3.358-7.5 7.5s3.358 7.5 7.5 7.5h8.405c7.55 0 13.693-6.143 13.693-13.693v-30.523c0-17.707-13.08-32.415-30.085-34.973-2.542-7.098-3.987-14.48-4.27-22.013-.375-9.973 1.352-20.126 4.997-29.519l51.207-17.232 53.681 53.68c4.483 4.484 11.781 4.484 16.264 0l53.177-53.177 45.673 15.37c3.454 8.784 5.237 18.285 5.148 27.687-.081 8.527-1.71 17.139-4.715 25.165-13.639 1.796-25.561 10.558-31.22 23.365-1.674 3.789.041 8.217 3.829 9.892 3.789 1.675 8.217-.04 9.892-3.829 3.965-8.974 12.861-14.774 22.667-14.784.007 0 .013.001.02.001s.014-.001.021-.001c13.663.007 24.776 11.125 24.776 24.791 0 13.671-11.122 24.793-24.792 24.793-7.565 0-14.621-3.391-19.359-9.302-2.59-3.232-7.31-3.754-10.542-1.162-3.232 2.59-3.752 7.311-1.162 10.542 7.6 9.483 18.922 14.921 31.063 14.921 21.941 0 39.792-17.851 39.792-39.793 0-18.369-12.514-33.864-29.462-38.425 2.67-8.416 4.108-17.262 4.191-26.033.07-7.343-.808-14.737-2.563-21.913l16.992 5.718c21.391 7.2 35.762 27.198 35.762 49.762v97.39c0 4.142 3.358 7.5 7.5 7.5s7.5-3.358 7.5-7.5v-97.39c0-29.009-18.477-54.719-45.978-63.976zm-24.738-208.139h.386c8.145 0 14.771 6.626 14.771 14.771s-6.626 14.771-14.771 14.771h-.386zm-245.208 29.541h-.386c-8.145 0-14.771-6.626-14.771-14.771 0-8.26 6.881-15.001 15.156-14.771v29.542zm191.43-56.687c-11.499-6.382-21.443-14.922-29.557-25.383-4.318-5.568-12.279-6.891-18.124-3.013-13.7 9.09-28.333 16.794-43.493 22.899-27.039 10.891-55.688 16.77-85.256 17.549v-62.399c0-23.435 19.065-42.5 42.5-42.5h130.207c23.435 0 42.5 19.065 42.5 42.5v62.136c-10.751-.928-24.568-3.904-38.777-11.789zm-67.826 262.591-47.541-47.541c5.056-4.355 8.405-10.472 9.29-17.25 11.761 3.792 24.155 5.8 36.819 5.844h.436c12.836 0 25.367-1.967 37.26-5.745.969 7.22 4.745 13.673 10.385 18.043zm59-201.504v-18.573c0-4.142-3.358-7.5-7.5-7.5s-7.5 3.358-7.5 7.5v18.573c0 4.142 3.358 7.5 7.5 7.5s7.5-3.358 7.5-7.5zm-105 0v-18.573c0-4.142-3.358-7.5-7.5-7.5s-7.5 3.358-7.5 7.5v18.573c0 4.142 3.358 7.5 7.5 7.5s7.5-3.358 7.5-7.5z" fill="#000000" data-original="#000000" style="" class=""/></g></g></svg>
